<svg width="146" height="48" viewBox="0 0 146 48" fill="none" xmlns="http://www.w3.org/2000/svg">
<rect x="1.5" y="1.5" width="143" height="45" rx="18.5" fill="#D7CDF5" stroke="url(#paint0_linear_94_15)" stroke-width="3"/>
<path d="M50.516 26.651V25.138H53.219C54.205 25.138 54.9417 24.9453 55.429 24.56C55.9277 24.1747 56.177 23.54 56.177 22.656C56.177 21.8627 55.9447 21.2677 55.48 20.871C55.0267 20.4743 54.324 20.276 53.372 20.276H50.516V18.78H53.406C54.1427 18.78 54.7943 18.865 55.361 19.035C55.939 19.205 56.4263 19.4543 56.823 19.783C57.231 20.1117 57.537 20.5253 57.741 21.024C57.9563 21.5113 58.064 22.078 58.064 22.724C58.064 23.574 57.8713 24.2937 57.486 24.883C57.1007 25.461 56.5283 25.903 55.769 26.209C55.021 26.5037 54.0917 26.651 52.981 26.651H50.516ZM49.394 30V18.78H51.247V30H49.394ZM61.9068 30.221C61.4195 30.221 60.9831 30.1303 60.5978 29.949C60.2125 29.7563 59.9065 29.473 59.6798 29.099C59.4645 28.725 59.3568 28.2603 59.3568 27.705C59.3568 27.263 59.4361 26.8833 59.5948 26.566C59.7648 26.2373 60.0141 25.9653 60.3428 25.75C60.6828 25.5233 61.1135 25.342 61.6348 25.206C62.1561 25.0587 62.7738 24.934 63.4878 24.832C63.8845 24.7753 64.2075 24.7187 64.4568 24.662C64.7175 24.6053 64.9045 24.5147 65.0178 24.39C65.1425 24.2653 65.2048 24.0783 65.2048 23.829C65.2048 23.4437 65.0688 23.115 64.7968 22.843C64.5361 22.5597 64.1111 22.418 63.5218 22.418C63.1931 22.418 62.8645 22.4747 62.5358 22.588C62.2185 22.7013 61.9408 22.8883 61.7028 23.149C61.4761 23.3983 61.3231 23.7383 61.2438 24.169L59.5778 23.642C59.6798 23.2113 59.8441 22.8317 60.0708 22.503C60.2975 22.163 60.5808 21.8797 60.9208 21.653C61.2608 21.415 61.6518 21.2393 62.0938 21.126C62.5471 21.0013 63.0401 20.939 63.5728 20.939C64.3548 20.939 65.0008 21.0693 65.5108 21.33C66.0208 21.5907 66.4005 21.993 66.6498 22.537C66.9105 23.0697 67.0408 23.7553 67.0408 24.594V26.396C67.0408 26.77 67.0465 27.1667 67.0578 27.586C67.0805 27.994 67.1031 28.4077 67.1258 28.827C67.1598 29.235 67.1995 29.626 67.2448 30H65.5618C65.5278 29.66 65.4938 29.3087 65.4598 28.946C65.4371 28.5833 65.4145 28.215 65.3918 27.841H65.1368C64.9781 28.2717 64.7515 28.6683 64.4568 29.031C64.1735 29.3937 63.8165 29.6827 63.3858 29.898C62.9665 30.1133 62.4735 30.221 61.9068 30.221ZM62.5528 28.793C62.7908 28.793 63.0288 28.7533 63.2668 28.674C63.5161 28.5947 63.7598 28.4757 63.9978 28.317C64.2471 28.147 64.4738 27.9317 64.6778 27.671C64.8931 27.4103 65.0801 27.0987 65.2388 26.736L65.2218 25.138L65.6638 25.223C65.4711 25.393 65.2275 25.5233 64.9328 25.614C64.6495 25.7047 64.3378 25.7783 63.9978 25.835C63.6578 25.8803 63.3178 25.937 62.9778 26.005C62.6491 26.0617 62.3431 26.1467 62.0598 26.26C61.7878 26.362 61.5668 26.5093 61.3968 26.702C61.2381 26.8947 61.1588 27.161 61.1588 27.501C61.1588 27.9203 61.2891 28.2433 61.5498 28.47C61.8105 28.6853 62.1448 28.793 62.5528 28.793ZM72.4023 30.221C71.405 30.221 70.6513 29.881 70.1413 29.201C69.6313 28.5097 69.3763 27.4727 69.3763 26.09V21.16H71.2293V25.886C71.2293 26.8153 71.371 27.5067 71.6543 27.96C71.9376 28.4133 72.3853 28.64 72.9973 28.64C73.3373 28.64 73.6376 28.555 73.8983 28.385C74.159 28.215 74.3856 27.977 74.5783 27.671C74.7823 27.365 74.941 27.008 75.0543 26.6C75.179 26.1807 75.264 25.7217 75.3093 25.223V21.16H77.1453V26.328V30H75.5813L75.6663 27.195H75.3773C75.23 27.8977 75.0203 28.4757 74.7483 28.929C74.4876 29.371 74.159 29.6997 73.7623 29.915C73.377 30.119 72.9236 30.221 72.4023 30.221ZM83.0551 30.221C82.4431 30.221 81.8991 30.1587 81.4231 30.034C80.9471 29.9093 80.5391 29.7337 80.1991 29.507C79.8704 29.269 79.6154 28.9857 79.4341 28.657C79.2527 28.3283 79.1451 27.9713 79.1111 27.586L80.6071 27.093C80.6071 27.4217 80.7091 27.7163 80.9131 27.977C81.1171 28.2377 81.4061 28.4417 81.7801 28.589C82.1654 28.725 82.6244 28.793 83.1571 28.793C83.7804 28.793 84.2621 28.691 84.6021 28.487C84.9421 28.283 85.1121 27.9997 85.1121 27.637C85.1121 27.365 85.0157 27.1497 84.8231 26.991C84.6417 26.8323 84.3754 26.702 84.0241 26.6C83.6841 26.498 83.2817 26.4017 82.8171 26.311C82.3977 26.2203 81.9784 26.1183 81.5591 26.005C81.1511 25.8803 80.7714 25.7217 80.4201 25.529C80.0801 25.3363 79.8024 25.087 79.5871 24.781C79.3831 24.4637 79.2811 24.067 79.2811 23.591C79.2811 23.047 79.4227 22.5823 79.7061 22.197C79.9894 21.8003 80.3974 21.4943 80.9301 21.279C81.4741 21.0523 82.1201 20.939 82.8681 20.939C83.5934 20.939 84.2167 21.0467 84.7381 21.262C85.2707 21.4773 85.6957 21.7777 86.0131 22.163C86.3304 22.5483 86.5231 23.0017 86.5911 23.523L85.0271 23.982C85.0044 23.6307 84.8967 23.336 84.7041 23.098C84.5227 22.86 84.2734 22.6843 83.9561 22.571C83.6387 22.4463 83.2647 22.384 82.8341 22.384C82.2674 22.384 81.8197 22.486 81.4911 22.69C81.1737 22.894 81.0151 23.1717 81.0151 23.523C81.0151 23.795 81.1114 24.016 81.3041 24.186C81.5081 24.3447 81.7801 24.475 82.1201 24.577C82.4714 24.6677 82.8681 24.7583 83.3101 24.849C83.7634 24.9397 84.1997 25.0417 84.6191 25.155C85.0384 25.2683 85.4124 25.4213 85.7411 25.614C86.0811 25.7953 86.3474 26.0447 86.5401 26.362C86.7441 26.668 86.8461 27.059 86.8461 27.535C86.8461 28.113 86.6874 28.606 86.3701 29.014C86.0641 29.4107 85.6277 29.711 85.0611 29.915C84.4944 30.119 83.8257 30.221 83.0551 30.221ZM92.7295 30.221C92.0269 30.221 91.4035 30.119 90.8595 29.915C90.3155 29.6997 89.8565 29.3993 89.4825 29.014C89.1085 28.6173 88.8252 28.147 88.6325 27.603C88.4399 27.0477 88.3435 26.4243 88.3435 25.733C88.3435 25.0417 88.4399 24.407 88.6325 23.829C88.8252 23.2397 89.0972 22.7297 89.4485 22.299C89.8112 21.8683 90.2532 21.534 90.7745 21.296C91.3072 21.058 91.9079 20.939 92.5765 20.939C93.1999 20.939 93.7552 21.041 94.2425 21.245C94.7412 21.449 95.1605 21.7607 95.5005 22.18C95.8405 22.588 96.0955 23.1037 96.2655 23.727C96.4355 24.339 96.4979 25.0587 96.4525 25.886L89.5335 25.937V24.781L95.3645 24.73L94.7185 25.444C94.7865 24.764 94.7299 24.203 94.5485 23.761C94.3672 23.319 94.1065 22.9903 93.7665 22.775C93.4265 22.5597 93.0355 22.452 92.5935 22.452C92.0949 22.452 91.6585 22.5823 91.2845 22.843C90.9219 23.0923 90.6385 23.4607 90.4345 23.948C90.2305 24.4353 90.1285 25.019 90.1285 25.699C90.1285 26.719 90.3552 27.4897 90.8085 28.011C91.2619 28.521 91.9079 28.776 92.7465 28.776C93.0979 28.776 93.3982 28.7363 93.6475 28.657C93.8969 28.5663 94.1065 28.453 94.2765 28.317C94.4465 28.1697 94.5825 27.9997 94.6845 27.807C94.7979 27.603 94.8885 27.3933 94.9565 27.178L96.5715 27.552C96.4695 27.9713 96.3109 28.3453 96.0955 28.674C95.8915 28.9913 95.6309 29.269 95.3135 29.507C94.9962 29.7337 94.6222 29.9093 94.1915 30.034C93.7722 30.1587 93.2849 30.221 92.7295 30.221Z" fill="url(#paint1_linear_94_15)"/>
<defs>
<linearGradient id="paint0_linear_94_15" x1="73" y1="0" x2="73" y2="48" gradientUnits="userSpaceOnUse">
<stop stop-color="#B8B8B8"/>
<stop offset="1" stop-color="#7D7D7D" stop-opacity="0.48"/>
</linearGradient>
<linearGradient id="paint1_linear_94_15" x1="73" y1="14" x2="73" y2="34" gradientUnits="userSpaceOnUse">
<stop stop-color="#4F4F4F"/>
<stop offset="1" stop-color="#1D1D1E" stop-opacity="0.28"/>
</linearGradient>
</defs>
</svg>
