<svg width="24" height="21" viewBox="0 0 24 21" fill="none" xmlns="http://www.w3.org/2000/svg">
<path d="M6.81478 0.36821C10.2574 2.22996 13.0553 4.42093 15.0484 7.59356C16.9149 10.5598 17.1475 15.7425 15.0901 18.6217C13.3686 21.0338 10.6937 21.338 8.6433 19.1764C5.98928 16.3781 5.51343 13.0218 6.32878 9.35155C6.79126 7.2725 7.27298 5.1929 7.19492 3.03127C7.16444 2.18596 7.13718 1.34608 6.81478 0.36821Z" fill="#7C7676"/>
<path d="M16.7566 18.839C17.148 18.1953 17.403 17.4505 17.5746 16.71C18.5504 12.4943 17.1667 7.89941 14.3758 4.62681C14.2464 4.4747 14.1085 4.30086 14.0609 4.09822C14.0042 3.84995 14.1144 3.78802 14.2881 3.65438C14.6702 3.36066 15.0586 3.07508 15.4531 2.79766C16.2412 2.24426 17.051 1.72418 17.8826 1.23742C18.115 1.10088 18.3492 0.967418 18.5851 0.837036C18.0729 2.96607 18.4461 5.20158 18.8722 7.35017C19.2984 9.49877 19.7785 11.693 19.4727 13.8628C19.2953 15.073 18.8798 16.2346 18.2509 17.2781C17.622 18.3216 16.7927 19.2257 15.8124 19.9364C16.1885 19.6302 16.5082 19.2586 16.7566 18.839Z" fill="#7C7676"/>
<path d="M0.747283 3.86137C0.7676 3.77662 0.981461 3.83964 1.04615 3.8467C1.18873 3.86227 1.3313 3.88038 1.47388 3.90103C2.04417 3.97636 2.60966 4.07704 3.17033 4.20308C3.85452 4.3567 4.5302 4.54711 5.19453 4.7735C5.35493 4.82783 5.52441 4.88976 5.65166 5.00656C5.99918 5.32654 5.90936 5.8937 5.79227 6.35493C5.29611 8.31066 4.81332 10.3039 4.86625 12.3243C4.95019 15.5496 6.46487 18.6907 8.86065 20.8083C8.71041 20.6753 8.52221 20.5726 8.36182 20.4503C8.18966 20.3192 8.02178 20.1832 7.85817 20.0424C7.02378 19.3242 6.30144 18.4817 5.71582 17.5434C5.61673 17.3847 5.52192 17.2236 5.43138 17.0599C4.29364 14.9998 3.84293 12.6372 3.31897 10.3381C3.08693 9.32058 2.83457 8.30523 2.4972 7.31704C2.15984 6.32885 1.74174 5.3776 1.17875 4.50676C1.10746 4.39811 1.03528 4.29109 0.962214 4.18569C0.911956 4.11453 0.753699 3.96839 0.748352 3.88201C0.747152 3.8752 0.746792 3.86827 0.747283 3.86137Z" fill="#7C7676"/>
<path d="M20.5314 11.0248C20.393 9.48356 20.0657 7.96134 19.6995 6.45706C19.5926 6.02951 19.4605 5.53025 19.5787 5.09076C19.7016 4.63388 19.992 4.66213 20.4245 4.57195C21.4582 4.35464 22.4986 4.18261 23.5458 4.05585C23.6168 4.04162 23.6901 4.04479 23.7597 4.06508C24.0024 4.15961 23.9131 4.5274 23.7891 4.75991C21.7376 8.58555 21.7574 13.2815 19.7305 17.1212C20.448 15.4632 20.6667 13.6156 20.586 11.806C20.5735 11.5452 20.5553 11.2848 20.5314 11.0248Z" fill="#7C7676"/>
</svg>
