<svg width="381" height="64" viewBox="0 0 381 64" fill="none" xmlns="http://www.w3.org/2000/svg">
<rect x="6" y="2" width="126" height="56" rx="28" fill="#5F6491"/>
<path d="M83.6663 21.2571V39.0857C83.6663 43.2879 83.6663 45.3889 82.3971 46.6944C81.1279 47.9999 79.0851 47.9999 74.9997 47.9999H72.833H64.1663H61.9997C57.9142 47.9999 55.8714 47.9999 54.6022 46.6944C53.333 45.3889 53.333 43.2879 53.333 39.0857V21.2571" stroke="white" stroke-width="3" stroke-linejoin="round"/>
<path d="M49 25.7143L58.75 16.8001L65.6212 10.5179C67.2628 9.01682 69.7372 9.01682 71.3789 10.5179L78.25 16.8001L88 25.7143" stroke="white" stroke-width="3" stroke-linecap="round" stroke-linejoin="round"/>
<path d="M64.167 48V39.0857C64.167 36.6241 66.107 34.6286 68.5003 34.6286C70.8936 34.6286 72.8337 36.6241 72.8337 39.0857V48" stroke="white" stroke-width="3" stroke-linecap="round" stroke-linejoin="round"/>
<path d="M335 14.5552C330.169 14.5552 326.253 18.4714 326.253 23.3023C326.253 28.1333 330.169 32.0494 335 32.0494C339.831 32.0494 343.747 28.1333 343.747 23.3023C343.747 18.4714 339.831 14.5552 335 14.5552ZM330.352 23.3023C330.352 20.7352 332.433 18.6541 335 18.6541C337.567 18.6541 339.648 20.7352 339.648 23.3023C339.648 25.8694 337.567 27.9506 335 27.9506C332.433 27.9506 330.352 25.8694 330.352 23.3023Z" fill="#5F6491" stroke="#5F6491" stroke-width="0.75"/>
<path d="M335 5.625C321.538 5.625 310.625 16.5381 310.625 30C310.625 43.462 321.538 54.375 335 54.375C348.462 54.375 359.375 43.462 359.375 30C359.375 16.5381 348.462 5.625 335 5.625ZM314.724 30C314.724 18.8018 323.802 9.72384 335 9.72384C346.198 9.72384 355.276 18.8018 355.276 30C355.276 35.3263 353.223 40.1725 349.864 43.791C349.416 41.8313 348.608 39.9704 347.128 38.4357C344.649 35.8643 340.725 34.6483 335 34.6483C329.275 34.6483 325.351 35.8643 322.872 38.4357C321.392 39.9704 320.584 41.8311 320.136 43.7908C316.777 40.1723 314.724 35.3263 314.724 30ZM335 38.7471C340.269 38.7471 342.831 39.8846 344.178 41.2809C345.385 42.5331 345.964 44.3412 346.202 46.9034C342.993 49.0345 339.142 50.2762 335 50.2762C330.858 50.2762 327.007 49.0345 323.798 46.9032C324.036 44.341 324.615 42.5331 325.822 41.2809C327.168 39.8846 329.731 38.7471 335 38.7471Z" fill="#5F6491" stroke="#5F6491" stroke-width="0.75"/>
<path d="M184 15C184 13.4087 184.632 11.8826 185.757 10.7574C186.883 9.63214 188.409 9 190 9C191.591 9 193.117 9.63214 194.243 10.7574C195.368 11.8826 196 13.4087 196 15C196 16.5913 195.368 18.1174 194.243 19.2426C193.117 20.3679 191.591 21 190 21C188.409 21 186.883 20.3679 185.757 19.2426C184.632 18.1174 184 16.5913 184 15ZM204.337 19.752L204.463 19.848C205.736 20.7915 207.33 21.1933 208.898 20.9655C210.466 20.7378 211.881 19.8991 212.832 18.6325C213.784 17.3659 214.197 15.7742 213.979 14.2047C213.762 12.6352 212.933 11.2155 211.672 10.2552C210.412 9.295 208.823 8.87225 207.252 9.07925C205.681 9.28625 204.256 10.1062 203.287 11.3601C202.319 12.6141 201.886 14.2002 202.082 15.7724C202.279 17.3446 203.089 18.7752 204.337 19.752ZM193.804 24C194.181 23.2865 194.698 22.6563 195.324 22.1472C195.95 21.638 196.672 21.2604 197.447 21.0368C198.222 20.8132 199.035 20.7483 199.836 20.846C200.637 20.9437 201.41 21.2019 202.109 21.6052C202.808 22.0086 203.418 22.5487 203.903 23.1934C204.388 23.838 204.739 24.5739 204.933 25.3571C205.127 26.1402 205.162 26.9545 205.034 27.7513C204.906 28.548 204.619 29.3108 204.19 29.994C203.364 31.3084 202.061 32.2515 200.554 32.6253C199.048 32.9991 197.455 32.7745 196.11 31.9986C194.766 31.2226 193.775 29.9559 193.345 28.4643C192.914 26.9728 193.079 25.3726 193.804 24ZM182.5 24H190.51C189.977 25.5227 189.861 27.1603 190.174 28.7429C190.488 30.3255 191.219 31.7954 192.292 33H191.5C189.953 32.9998 188.444 33.4776 187.18 34.368C185.915 35.2583 184.956 36.5178 184.435 37.974C183.428 37.5695 182.485 37.0207 181.636 36.345C179.38 34.53 178 31.848 178 28.5C178 27.3065 178.474 26.1619 179.318 25.318C180.162 24.4741 181.307 24 182.5 24ZM206.5 33C209.755 33 212.527 35.073 213.565 37.974C214.585 37.557 215.527 37.014 216.364 36.345C218.62 34.53 220 31.848 220 28.5C220 27.3065 219.526 26.1619 218.682 25.318C217.838 24.4741 216.693 24 215.5 24H207.49C207.82 24.939 208 25.95 208 27C208.003 29.2143 207.186 31.3515 205.708 33H206.5ZM210.661 38.784C210.88 39.312 211 39.894 211 40.5C211 43.848 209.623 46.53 207.364 48.345C205.141 50.13 202.159 51 199 51C195.841 51 192.859 50.13 190.636 48.345C188.38 46.53 187 43.848 187 40.5C186.998 39.9086 187.114 39.3227 187.339 38.7761C187.565 38.2294 187.896 37.7327 188.314 37.3145C188.733 36.8963 189.229 36.5649 189.776 36.3393C190.323 36.1137 190.909 35.9984 191.5 36H206.5C207.391 35.9998 208.263 36.2643 209.003 36.7599C209.744 37.2556 210.321 37.96 210.661 38.784Z" fill="#5F6491"/>
</svg>
