<svg width="146" height="48" viewBox="0 0 146 48" fill="none" xmlns="http://www.w3.org/2000/svg">
<rect x="1.5" y="1.5" width="143" height="45" rx="18.5" fill="black" fill-opacity="0.04" stroke="url(#paint0_linear_94_12)" stroke-width="3"/>
<path d="M46.516 26.651V25.138H49.219C50.205 25.138 50.9417 24.9453 51.429 24.56C51.9277 24.1747 52.177 23.54 52.177 22.656C52.177 21.8627 51.9447 21.2677 51.48 20.871C51.0267 20.4743 50.324 20.276 49.372 20.276H46.516V18.78H49.406C50.1427 18.78 50.7943 18.865 51.361 19.035C51.939 19.205 52.4263 19.4543 52.823 19.783C53.231 20.1117 53.537 20.5253 53.741 21.024C53.9563 21.5113 54.064 22.078 54.064 22.724C54.064 23.574 53.8713 24.2937 53.486 24.883C53.1007 25.461 52.5283 25.903 51.769 26.209C51.021 26.5037 50.0917 26.651 48.981 26.651H46.516ZM45.394 30V18.78H47.247V30H45.394ZM57.9068 30.221C57.4195 30.221 56.9831 30.1303 56.5978 29.949C56.2125 29.7563 55.9065 29.473 55.6798 29.099C55.4645 28.725 55.3568 28.2603 55.3568 27.705C55.3568 27.263 55.4361 26.8833 55.5948 26.566C55.7648 26.2373 56.0141 25.9653 56.3428 25.75C56.6828 25.5233 57.1135 25.342 57.6348 25.206C58.1561 25.0587 58.7738 24.934 59.4878 24.832C59.8845 24.7753 60.2075 24.7187 60.4568 24.662C60.7175 24.6053 60.9045 24.5147 61.0178 24.39C61.1425 24.2653 61.2048 24.0783 61.2048 23.829C61.2048 23.4437 61.0688 23.115 60.7968 22.843C60.5361 22.5597 60.1111 22.418 59.5218 22.418C59.1931 22.418 58.8645 22.4747 58.5358 22.588C58.2185 22.7013 57.9408 22.8883 57.7028 23.149C57.4761 23.3983 57.3231 23.7383 57.2438 24.169L55.5778 23.642C55.6798 23.2113 55.8441 22.8317 56.0708 22.503C56.2975 22.163 56.5808 21.8797 56.9208 21.653C57.2608 21.415 57.6518 21.2393 58.0938 21.126C58.5471 21.0013 59.0401 20.939 59.5728 20.939C60.3548 20.939 61.0008 21.0693 61.5108 21.33C62.0208 21.5907 62.4005 21.993 62.6498 22.537C62.9105 23.0697 63.0408 23.7553 63.0408 24.594V26.396C63.0408 26.77 63.0465 27.1667 63.0578 27.586C63.0805 27.994 63.1031 28.4077 63.1258 28.827C63.1598 29.235 63.1995 29.626 63.2448 30H61.5618C61.5278 29.66 61.4938 29.3087 61.4598 28.946C61.4371 28.5833 61.4145 28.215 61.3918 27.841H61.1368C60.9781 28.2717 60.7515 28.6683 60.4568 29.031C60.1735 29.3937 59.8165 29.6827 59.3858 29.898C58.9665 30.1133 58.4735 30.221 57.9068 30.221ZM58.5528 28.793C58.7908 28.793 59.0288 28.7533 59.2668 28.674C59.5161 28.5947 59.7598 28.4757 59.9978 28.317C60.2471 28.147 60.4738 27.9317 60.6778 27.671C60.8931 27.4103 61.0801 27.0987 61.2388 26.736L61.2218 25.138L61.6638 25.223C61.4711 25.393 61.2275 25.5233 60.9328 25.614C60.6495 25.7047 60.3378 25.7783 59.9978 25.835C59.6578 25.8803 59.3178 25.937 58.9778 26.005C58.6491 26.0617 58.3431 26.1467 58.0598 26.26C57.7878 26.362 57.5668 26.5093 57.3968 26.702C57.2381 26.8947 57.1588 27.161 57.1588 27.501C57.1588 27.9203 57.2891 28.2433 57.5498 28.47C57.8105 28.6853 58.1448 28.793 58.5528 28.793ZM68.4023 30.221C67.405 30.221 66.6513 29.881 66.1413 29.201C65.6313 28.5097 65.3763 27.4727 65.3763 26.09V21.16H67.2293V25.886C67.2293 26.8153 67.371 27.5067 67.6543 27.96C67.9376 28.4133 68.3853 28.64 68.9973 28.64C69.3373 28.64 69.6376 28.555 69.8983 28.385C70.159 28.215 70.3856 27.977 70.5783 27.671C70.7823 27.365 70.941 27.008 71.0543 26.6C71.179 26.1807 71.264 25.7217 71.3093 25.223V21.16H73.1453V26.328V30H71.5813L71.6663 27.195H71.3773C71.23 27.8977 71.0203 28.4757 70.7483 28.929C70.4876 29.371 70.159 29.6997 69.7623 29.915C69.377 30.119 68.9236 30.221 68.4023 30.221ZM79.0551 30.221C78.4431 30.221 77.8991 30.1587 77.4231 30.034C76.9471 29.9093 76.5391 29.7337 76.1991 29.507C75.8704 29.269 75.6154 28.9857 75.4341 28.657C75.2527 28.3283 75.1451 27.9713 75.1111 27.586L76.6071 27.093C76.6071 27.4217 76.7091 27.7163 76.9131 27.977C77.1171 28.2377 77.4061 28.4417 77.7801 28.589C78.1654 28.725 78.6244 28.793 79.1571 28.793C79.7804 28.793 80.2621 28.691 80.6021 28.487C80.9421 28.283 81.1121 27.9997 81.1121 27.637C81.1121 27.365 81.0157 27.1497 80.8231 26.991C80.6417 26.8323 80.3754 26.702 80.0241 26.6C79.6841 26.498 79.2817 26.4017 78.8171 26.311C78.3977 26.2203 77.9784 26.1183 77.5591 26.005C77.1511 25.8803 76.7714 25.7217 76.4201 25.529C76.0801 25.3363 75.8024 25.087 75.5871 24.781C75.3831 24.4637 75.2811 24.067 75.2811 23.591C75.2811 23.047 75.4227 22.5823 75.7061 22.197C75.9894 21.8003 76.3974 21.4943 76.9301 21.279C77.4741 21.0523 78.1201 20.939 78.8681 20.939C79.5934 20.939 80.2167 21.0467 80.7381 21.262C81.2707 21.4773 81.6957 21.7777 82.0131 22.163C82.3304 22.5483 82.5231 23.0017 82.5911 23.523L81.0271 23.982C81.0044 23.6307 80.8967 23.336 80.7041 23.098C80.5227 22.86 80.2734 22.6843 79.9561 22.571C79.6387 22.4463 79.2647 22.384 78.8341 22.384C78.2674 22.384 77.8197 22.486 77.4911 22.69C77.1737 22.894 77.0151 23.1717 77.0151 23.523C77.0151 23.795 77.1114 24.016 77.3041 24.186C77.5081 24.3447 77.7801 24.475 78.1201 24.577C78.4714 24.6677 78.8681 24.7583 79.3101 24.849C79.7634 24.9397 80.1997 25.0417 80.6191 25.155C81.0384 25.2683 81.4124 25.4213 81.7411 25.614C82.0811 25.7953 82.3474 26.0447 82.5401 26.362C82.7441 26.668 82.8461 27.059 82.8461 27.535C82.8461 28.113 82.6874 28.606 82.3701 29.014C82.0641 29.4107 81.6277 29.711 81.0611 29.915C80.4944 30.119 79.8257 30.221 79.0551 30.221ZM88.7295 30.221C88.0269 30.221 87.4035 30.119 86.8595 29.915C86.3155 29.6997 85.8565 29.3993 85.4825 29.014C85.1085 28.6173 84.8252 28.147 84.6325 27.603C84.4399 27.0477 84.3435 26.4243 84.3435 25.733C84.3435 25.0417 84.4399 24.407 84.6325 23.829C84.8252 23.2397 85.0972 22.7297 85.4485 22.299C85.8112 21.8683 86.2532 21.534 86.7745 21.296C87.3072 21.058 87.9079 20.939 88.5765 20.939C89.1999 20.939 89.7552 21.041 90.2425 21.245C90.7412 21.449 91.1605 21.7607 91.5005 22.18C91.8405 22.588 92.0955 23.1037 92.2655 23.727C92.4355 24.339 92.4979 25.0587 92.4525 25.886L85.5335 25.937V24.781L91.3645 24.73L90.7185 25.444C90.7865 24.764 90.7299 24.203 90.5485 23.761C90.3672 23.319 90.1065 22.9903 89.7665 22.775C89.4265 22.5597 89.0355 22.452 88.5935 22.452C88.0949 22.452 87.6585 22.5823 87.2845 22.843C86.9219 23.0923 86.6385 23.4607 86.4345 23.948C86.2305 24.4353 86.1285 25.019 86.1285 25.699C86.1285 26.719 86.3552 27.4897 86.8085 28.011C87.2619 28.521 87.9079 28.776 88.7465 28.776C89.0979 28.776 89.3982 28.7363 89.6475 28.657C89.8969 28.5663 90.1065 28.453 90.2765 28.317C90.4465 28.1697 90.5825 27.9997 90.6845 27.807C90.7979 27.603 90.8885 27.3933 90.9565 27.178L92.5715 27.552C92.4695 27.9713 92.3109 28.3453 92.0955 28.674C91.8915 28.9913 91.6309 29.269 91.3135 29.507C90.9962 29.7337 90.6222 29.9093 90.1915 30.034C89.7722 30.1587 89.2849 30.221 88.7295 30.221Z" fill="url(#paint1_linear_94_12)"/>
<defs>
<linearGradient id="paint0_linear_94_12" x1="73" y1="0" x2="73" y2="48" gradientUnits="userSpaceOnUse">
<stop stop-color="#B8B8B8"/>
<stop offset="1" stop-color="#7D7D7D" stop-opacity="0.48"/>
</linearGradient>
<linearGradient id="paint1_linear_94_12" x1="69" y1="14" x2="69" y2="34" gradientUnits="userSpaceOnUse">
<stop stop-color="#4F4F4F"/>
<stop offset="1" stop-color="#1D1D1E" stop-opacity="0.28"/>
</linearGradient>
</defs>
</svg>
