<svg width="146" height="48" viewBox="0 0 146 48" fill="none" xmlns="http://www.w3.org/2000/svg">
<rect x="1.5" y="1.5" width="143" height="45" rx="18.5" fill="black" fill-opacity="0.04" stroke="url(#paint0_linear_94_9)" stroke-width="3"/>
<path d="M42.273 30.221C41.4457 30.221 40.7033 30.0963 40.046 29.847C39.3887 29.5977 38.8333 29.235 38.38 28.759C37.9267 28.2717 37.581 27.6767 37.343 26.974C37.105 26.26 36.986 25.444 36.986 24.526C36.986 23.5967 37.105 22.7637 37.343 22.027C37.5923 21.2903 37.9437 20.667 38.397 20.157C38.8503 19.6357 39.3943 19.239 40.029 18.967C40.6637 18.695 41.372 18.559 42.154 18.559C42.7547 18.559 43.31 18.644 43.82 18.814C44.33 18.9727 44.772 19.205 45.146 19.511C45.52 19.817 45.809 20.191 46.013 20.633C46.2283 21.075 46.3417 21.5737 46.353 22.129L44.602 22.571C44.6133 22.027 44.5 21.5793 44.262 21.228C44.0353 20.8653 43.7293 20.5933 43.344 20.412C42.9587 20.2307 42.545 20.14 42.103 20.14C41.695 20.14 41.2983 20.2193 40.913 20.378C40.5277 20.5367 40.182 20.7917 39.876 21.143C39.5813 21.483 39.3433 21.925 39.162 22.469C38.992 23.013 38.907 23.6703 38.907 24.441C38.907 25.427 39.0487 26.2317 39.332 26.855C39.6267 27.467 40.029 27.9203 40.539 28.215C41.0603 28.4983 41.6553 28.64 42.324 28.64C42.9927 28.64 43.5253 28.5097 43.922 28.249C44.3187 27.9883 44.6077 27.6427 44.789 27.212C44.9817 26.77 45.0893 26.2713 45.112 25.716L46.761 26.005C46.7497 26.583 46.659 27.1327 46.489 27.654C46.319 28.164 46.0527 28.6117 45.69 28.997C45.3387 29.3823 44.8797 29.6827 44.313 29.898C43.7463 30.1133 43.0663 30.221 42.273 30.221ZM52.5227 30.221C51.6727 30.221 50.919 30.0397 50.2617 29.677C49.6043 29.3143 49.0887 28.7873 48.7147 28.096C48.352 27.4047 48.1707 26.5547 48.1707 25.546C48.1707 24.5147 48.3633 23.659 48.7487 22.979C49.134 22.299 49.6497 21.789 50.2957 21.449C50.953 21.109 51.6897 20.939 52.5057 20.939C53.3443 20.939 54.0923 21.1147 54.7497 21.466C55.407 21.8173 55.9227 22.3387 56.2967 23.03C56.682 23.7213 56.8747 24.5827 56.8747 25.614C56.8747 26.634 56.682 27.4897 56.2967 28.181C55.9227 28.861 55.407 29.371 54.7497 29.711C54.0923 30.051 53.35 30.221 52.5227 30.221ZM52.5907 28.759C53.1007 28.759 53.537 28.64 53.8997 28.402C54.2623 28.164 54.54 27.8127 54.7327 27.348C54.9253 26.8833 55.0217 26.328 55.0217 25.682C55.0217 25.0133 54.9197 24.441 54.7157 23.965C54.5117 23.4777 54.217 23.1037 53.8317 22.843C53.4577 22.5823 52.9987 22.452 52.4547 22.452C51.9673 22.452 51.5367 22.571 51.1627 22.809C50.8 23.0357 50.5223 23.3813 50.3297 23.846C50.137 24.2993 50.0407 24.8547 50.0407 25.512C50.0407 26.5433 50.2673 27.3423 50.7207 27.909C51.174 28.4757 51.7973 28.759 52.5907 28.759ZM58.9234 30V24.56V21.16H60.5214L60.4194 23.914H60.7084C60.8671 23.234 61.0768 22.6787 61.3374 22.248C61.6094 21.806 61.9494 21.4773 62.3574 21.262C62.7768 21.0467 63.2641 20.939 63.8194 20.939C64.8054 20.939 65.5534 21.2903 66.0634 21.993C66.5848 22.6957 66.8454 23.7667 66.8454 25.206V30H64.9754V25.393C64.9754 24.407 64.8281 23.6873 64.5334 23.234C64.2388 22.7693 63.7968 22.537 63.2074 22.537C62.6974 22.537 62.2611 22.7013 61.8984 23.03C61.5471 23.3473 61.2751 23.7667 61.0824 24.288C60.8898 24.8093 60.7821 25.376 60.7594 25.988V30H58.9234ZM72.1736 30.187C71.3009 30.187 70.6493 29.949 70.2186 29.473C69.7993 28.997 69.5896 28.266 69.5896 27.28V22.673H68.2806L68.3146 21.16H69.1646C69.4593 21.16 69.6803 21.1147 69.8276 21.024C69.9749 20.922 70.0656 20.7463 70.0996 20.497L70.2696 19.188H71.3746V21.16H73.8056V22.707H71.3746V27.229C71.3746 27.671 71.4766 27.9883 71.6806 28.181C71.8846 28.3737 72.1849 28.47 72.5816 28.47C72.7969 28.47 73.0123 28.4473 73.2276 28.402C73.4543 28.3453 73.6696 28.2433 73.8736 28.096V29.881C73.5336 29.9943 73.2219 30.0737 72.9386 30.119C72.6553 30.1643 72.4003 30.187 72.1736 30.187ZM75.7076 30V21.16H77.5436V30H75.7076ZM76.6256 19.681C76.229 19.681 75.9286 19.6017 75.7246 19.443C75.5206 19.273 75.4186 19.0237 75.4186 18.695C75.4186 18.3777 75.5206 18.134 75.7246 17.964C75.9286 17.794 76.229 17.709 76.6256 17.709C77.0336 17.709 77.3396 17.794 77.5436 17.964C77.7476 18.134 77.8496 18.3777 77.8496 18.695C77.8496 19.0237 77.7476 19.273 77.5436 19.443C77.3396 19.6017 77.0336 19.681 76.6256 19.681ZM80.107 30V24.56V21.16H81.705L81.603 23.914H81.892C82.0507 23.234 82.2604 22.6787 82.521 22.248C82.793 21.806 83.133 21.4773 83.541 21.262C83.9604 21.0467 84.4477 20.939 85.003 20.939C85.989 20.939 86.737 21.2903 87.247 21.993C87.7684 22.6957 88.029 23.7667 88.029 25.206V30H86.159V25.393C86.159 24.407 86.0117 23.6873 85.717 23.234C85.4224 22.7693 84.9804 22.537 84.391 22.537C83.881 22.537 83.4447 22.7013 83.082 23.03C82.7307 23.3473 82.4587 23.7667 82.266 24.288C82.0734 24.8093 81.9657 25.376 81.943 25.988V30H80.107ZM93.3398 30.221C92.3425 30.221 91.5888 29.881 91.0788 29.201C90.5688 28.5097 90.3138 27.4727 90.3138 26.09V21.16H92.1668V25.886C92.1668 26.8153 92.3085 27.5067 92.5918 27.96C92.8751 28.4133 93.3228 28.64 93.9348 28.64C94.2748 28.64 94.5751 28.555 94.8358 28.385C95.0965 28.215 95.3231 27.977 95.5158 27.671C95.7198 27.365 95.8785 27.008 95.9918 26.6C96.1165 26.1807 96.2015 25.7217 96.2468 25.223V21.16H98.0828V26.328V30H96.5188L96.6038 27.195H96.3148C96.1675 27.8977 95.9578 28.4757 95.6858 28.929C95.4251 29.371 95.0965 29.6997 94.6998 29.915C94.3145 30.119 93.8611 30.221 93.3398 30.221ZM104.52 30.221C103.817 30.221 103.194 30.119 102.65 29.915C102.106 29.6997 101.647 29.3993 101.273 29.014C100.899 28.6173 100.615 28.147 100.423 27.603C100.23 27.0477 100.134 26.4243 100.134 25.733C100.134 25.0417 100.23 24.407 100.423 23.829C100.615 23.2397 100.887 22.7297 101.239 22.299C101.601 21.8683 102.043 21.534 102.565 21.296C103.097 21.058 103.698 20.939 104.367 20.939C104.99 20.939 105.545 21.041 106.033 21.245C106.531 21.449 106.951 21.7607 107.291 22.18C107.631 22.588 107.886 23.1037 108.056 23.727C108.226 24.339 108.288 25.0587 108.243 25.886L101.324 25.937V24.781L107.155 24.73L106.509 25.444C106.577 24.764 106.52 24.203 106.339 23.761C106.157 23.319 105.897 22.9903 105.557 22.775C105.217 22.5597 104.826 22.452 104.384 22.452C103.885 22.452 103.449 22.5823 103.075 22.843C102.712 23.0923 102.429 23.4607 102.225 23.948C102.021 24.4353 101.919 25.019 101.919 25.699C101.919 26.719 102.145 27.4897 102.599 28.011C103.052 28.521 103.698 28.776 104.537 28.776C104.888 28.776 105.188 28.7363 105.438 28.657C105.687 28.5663 105.897 28.453 106.067 28.317C106.237 28.1697 106.373 27.9997 106.475 27.807C106.588 27.603 106.679 27.3933 106.747 27.178L108.362 27.552C108.26 27.9713 108.101 28.3453 107.886 28.674C107.682 28.9913 107.421 29.269 107.104 29.507C106.786 29.7337 106.412 29.9093 105.982 30.034C105.562 30.1587 105.075 30.221 104.52 30.221Z" fill="url(#paint1_linear_94_9)"/>
<defs>
<linearGradient id="paint0_linear_94_9" x1="73" y1="0" x2="73" y2="48" gradientUnits="userSpaceOnUse">
<stop stop-color="#B8B8B8"/>
<stop offset="1" stop-color="#7D7D7D" stop-opacity="0.48"/>
</linearGradient>
<linearGradient id="paint1_linear_94_9" x1="73" y1="14" x2="73" y2="34" gradientUnits="userSpaceOnUse">
<stop stop-color="#4F4F4F"/>
<stop offset="1" stop-color="#1D1D1E" stop-opacity="0.28"/>
</linearGradient>
</defs>
</svg>
